<svg id="Calque_1" data-name="Calque 1" xmlns="http://www.w3.org/2000/svg" viewBox="0 0 828.11 289"><defs><style>.cls-1{fill:#1d1d1b;}</style></defs><title>KODEIN_LOGO</title><path class="cls-1" d="M89.77,87.59h25.38V138L162,87.59h30.66l-47,49L194.77,203H164.28l-35.77-49.12L115.16,167.7V203H89.77Z"/><path class="cls-1" d="M341.12,87.59h45c36.26,0,61.31,24.89,61.31,57.36v.33c0,32.47-25.05,57.69-61.31,57.69h-45Zm45,92.47c20.77,0,34.78-14,34.78-34.45v-.33c0-20.44-14-34.78-34.78-34.78H366.51v69.56Z"/><path class="cls-1" d="M470,87.59h87v22.58H495.23v23.41h54.39v22.58H495.23v24.23h62.63V203H470Z"/><path class="cls-1" d="M581.59,87.59H607V203H581.59Z"/><path class="cls-1" d="M635.82,87.59h23.41l54.06,71v-71h25.05V203H716.75l-55.87-73.35V203H635.82Z"/><path class="cls-1" d="M292.53,95.84A63.06,63.06,0,0,0,257.4,85.61c-35.6,0-61.48,26.87-61.48,59.67v.33A59,59,0,0,0,207.41,181Z"/><path class="cls-1" d="M221.93,194.72a63.06,63.06,0,0,0,35.13,10.22c35.6,0,61.48-26.87,61.48-59.67v-.33a59,59,0,0,0-11.49-35.35Z"/></svg>