<?xml version="1.0" encoding="UTF-8" standalone="no"?>
<svg
   xmlns:dc="http://purl.org/dc/elements/1.1/"
   xmlns:cc="http://creativecommons.org/ns#"
   xmlns:rdf="http://www.w3.org/1999/02/22-rdf-syntax-ns#"
   xmlns:svg="http://www.w3.org/2000/svg"
   xmlns="http://www.w3.org/2000/svg"
   viewBox="0 0 328.10931 412.91599"
   height="412.91599"
   width="328.10931"
   xml:space="preserve"
   id="svg2"
   version="1.1"><metadata
     id="metadata8"><rdf:RDF><cc:Work
         rdf:about=""><dc:format>image/svg+xml</dc:format><dc:type
           rdf:resource="http://purl.org/dc/dcmitype/StillImage" /><dc:title></dc:title></cc:Work></rdf:RDF></metadata><defs
     id="defs6"><clipPath
       id="clipPath20"
       clipPathUnits="userSpaceOnUse"><path
         id="path18"
         d="m 196.59,327.885 c 0,-6.827 0.807,-13.222 2.376,-19.154 v 0 c -38.234,-27.606 -65.897,-71.049 -65.897,-114.03 v 0 c 0,-73.453 51.195,-106.907 98.762,-106.907 v 0 c 49.342,0 83.803,28.619 83.803,69.596 v 0 c 0,6.829 -0.808,13.225 -2.378,19.158 v 0 c 38.234,27.605 65.895,71.047 65.895,114.028 v 0 c 0,73.451 -51.192,106.905 -98.759,106.905 v 0 c -49.342,0 -83.802,-28.619 -83.802,-69.596 m 15.379,0 c 0,32.427 27.498,54.214 68.423,54.214 v 0 c 40.158,0 83.381,-28.638 83.381,-91.523 v 0 c 0,-36.52 -23.781,-74.26 -56.592,-99.195 v 0 c -13.054,22.747 -40.716,35.602 -79.333,35.602 v 0 c -0.053,0 -0.103,-0.015 -0.155,-0.016 v 0 c -0.105,10e-4 -0.205,0.016 -0.31,0.016 v 0 c -21.975,0 -39.849,-17.874 -39.849,-39.845 v 0 c 0,-21.974 17.874,-39.848 39.849,-39.848 v 0 c 0.544,0 1.072,0.06 1.611,0.081 v 0 c 0.27,-0.028 0.532,-0.081 0.81,-0.081 v 0 c 23.941,0 48.013,7.606 69.647,20.259 v 0 c 0.506,-3.168 0.804,-6.531 0.804,-10.159 v 0 c 0,-32.429 -27.499,-54.218 -68.424,-54.218 v 0 c -40.161,0 -83.383,28.642 -83.383,91.529 v 0 c 0,36.52 23.781,74.259 56.594,99.194 v 0 c 13.053,-22.75 40.716,-35.606 79.334,-35.606 v 0 c 0.053,0 0.102,0.015 0.155,0.016 v 0 c 0.105,0 0.206,-0.016 0.31,-0.016 v 0 c 21.971,0 39.845,17.876 39.845,39.849 v 0 c 0,21.972 -17.874,39.85 -39.845,39.85 v 0 c -0.544,0 -1.072,-0.061 -1.61,-0.082 v 0 c -0.271,0.029 -0.534,0.082 -0.811,0.082 v 0 c -23.943,0 -48.015,-7.607 -69.647,-20.259 v 0 c -0.507,3.168 -0.804,6.529 -0.804,10.156 m 48.402,-29.747 c 0,13.492 10.98,24.468 24.47,24.468 v 0 c 13.491,0 24.466,-10.976 24.466,-24.468 v 0 c 0,-13.491 -10.975,-24.467 -24.466,-24.467 v 0 c -13.49,0 -24.47,10.976 -24.47,24.467 m -42.677,4.454 c 10.271,6.347 21.17,11.406 32.318,14.859 v 0 c -3.188,-5.727 -5.019,-12.307 -5.019,-19.313 v 0 c 0,-7.292 2.002,-14.112 5.436,-19.998 v 0 c -13.332,4.006 -25.787,11.351 -32.735,24.452 M 202.912,187.138 c 0,13.491 10.979,24.466 24.471,24.466 v 0 c 13.49,0 24.469,-10.975 24.469,-24.466 v 0 c 0,-13.491 -10.979,-24.47 -24.469,-24.47 v 0 c -13.492,0 -24.471,10.979 -24.471,24.47 m 64.319,0 c 0,7.293 -2.003,14.111 -5.437,19.998 v 0 c 13.332,-4.008 25.788,-11.353 32.736,-24.452 v 0 c -10.272,-6.348 -21.17,-11.409 -32.319,-14.86 v 0 c 3.187,5.726 5.02,12.307 5.02,19.314" /></clipPath><linearGradient
       id="linearGradient30"
       spreadMethod="pad"
       gradientTransform="matrix(152.88922,-136.34711,-136.34711,-152.88922,199.45345,293.16528)"
       gradientUnits="userSpaceOnUse"
       y2="0"
       x2="1"
       y1="0"
       x1="0"><stop
         id="stop26"
         offset="0"
         style="stop-opacity:1;stop-color:#e8441e" /><stop
         id="stop28"
         offset="1"
         style="stop-opacity:1;stop-color:#921c80" /></linearGradient></defs><g
     transform="matrix(1.3333333,0,0,-1.3333333,-177.42533,529.97465)"
     id="g10"><g
       id="g14"><g
         clip-path="url(#clipPath20)"
         id="g16"><g
           id="g22"><g
             id="g24"><path
               id="path32"
               style="fill:url(#linearGradient30);stroke:none"
               d="m 196.59,327.885 c 0,-6.827 0.807,-13.222 2.376,-19.154 v 0 c -38.234,-27.606 -65.897,-71.049 -65.897,-114.03 v 0 c 0,-73.453 51.195,-106.907 98.762,-106.907 v 0 c 49.342,0 83.803,28.619 83.803,69.596 v 0 c 0,6.829 -0.808,13.225 -2.378,19.158 v 0 c 38.234,27.605 65.895,71.047 65.895,114.028 v 0 c 0,73.451 -51.192,106.905 -98.759,106.905 v 0 c -49.342,0 -83.802,-28.619 -83.802,-69.596 m 15.379,0 c 0,32.427 27.498,54.214 68.423,54.214 v 0 c 40.158,0 83.381,-28.638 83.381,-91.523 v 0 c 0,-36.52 -23.781,-74.26 -56.592,-99.195 v 0 c -13.054,22.747 -40.716,35.602 -79.333,35.602 v 0 c -0.053,0 -0.103,-0.015 -0.155,-0.016 v 0 c -0.105,10e-4 -0.205,0.016 -0.31,0.016 v 0 c -21.975,0 -39.849,-17.874 -39.849,-39.845 v 0 c 0,-21.974 17.874,-39.848 39.849,-39.848 v 0 c 0.544,0 1.072,0.06 1.611,0.081 v 0 c 0.27,-0.028 0.532,-0.081 0.81,-0.081 v 0 c 23.941,0 48.013,7.606 69.647,20.259 v 0 c 0.506,-3.168 0.804,-6.531 0.804,-10.159 v 0 c 0,-32.429 -27.499,-54.218 -68.424,-54.218 v 0 c -40.161,0 -83.383,28.642 -83.383,91.529 v 0 c 0,36.52 23.781,74.259 56.594,99.194 v 0 c 13.053,-22.75 40.716,-35.606 79.334,-35.606 v 0 c 0.053,0 0.102,0.015 0.155,0.016 v 0 c 0.105,0 0.206,-0.016 0.31,-0.016 v 0 c 21.971,0 39.845,17.876 39.845,39.849 v 0 c 0,21.972 -17.874,39.85 -39.845,39.85 v 0 c -0.544,0 -1.072,-0.061 -1.61,-0.082 v 0 c -0.271,0.029 -0.534,0.082 -0.811,0.082 v 0 c -23.943,0 -48.015,-7.607 -69.647,-20.259 v 0 c -0.507,3.168 -0.804,6.529 -0.804,10.156 m 48.402,-29.747 c 0,13.492 10.98,24.468 24.47,24.468 v 0 c 13.491,0 24.466,-10.976 24.466,-24.468 v 0 c 0,-13.491 -10.975,-24.467 -24.466,-24.467 v 0 c -13.49,0 -24.47,10.976 -24.47,24.467 m -42.677,4.454 c 10.271,6.347 21.17,11.406 32.318,14.859 v 0 c -3.188,-5.727 -5.019,-12.307 -5.019,-19.313 v 0 c 0,-7.292 2.002,-14.112 5.436,-19.998 v 0 c -13.332,4.006 -25.787,11.351 -32.735,24.452 M 202.912,187.138 c 0,13.491 10.979,24.466 24.471,24.466 v 0 c 13.49,0 24.469,-10.975 24.469,-24.466 v 0 c 0,-13.491 -10.979,-24.47 -24.469,-24.47 v 0 c -13.492,0 -24.471,10.979 -24.471,24.47 m 64.319,0 c 0,7.293 -2.003,14.111 -5.437,19.998 v 0 c 13.332,-4.008 25.788,-11.353 32.736,-24.452 v 0 c -10.272,-6.348 -21.17,-11.409 -32.319,-14.86 v 0 c 3.187,5.726 5.02,12.307 5.02,19.314" /></g></g></g></g></g></svg>